<svg xmlns="http://www.w3.org/2000/svg" viewBox="0 0 800 400">
  <defs>
    <linearGradient id="bg2" x1="0%" y1="0%" x2="100%" y2="100%">
      <stop offset="0%" style="stop-color:#000014;stop-opacity:1" />
      <stop offset="100%" style="stop-color:#1a1a2e;stop-opacity:1" />
    </linearGradient>
    <linearGradient id="camera" x1="0%" y1="0%" x2="100%" y2="100%">
      <stop offset="0%" style="stop-color:#00ff88;stop-opacity:0.8" />
      <stop offset="100%" style="stop-color:#00ffff;stop-opacity:0.4" />
    </linearGradient>
    <filter id="glow">
      <feGaussianBlur stdDeviation="3"/>
    </filter>
    <filter id="shadow">
      <feDropShadow dx="2" dy="2" stdDeviation="2" flood-color="#00ff88" flood-opacity="0.3"/>
    </filter>
  </defs>

  <!-- Background -->
  <rect width="800" height="400" fill="url(#bg2)"/>

  <!-- Sapera SDK Camera System -->
  <g id="sapera-camera">
    <!-- Camera body -->
    <rect x="50" y="150" width="120" height="80" rx="10" fill="url(#camera)" stroke="#00ff88" stroke-width="2" filter="url(#shadow)"/>

    <!-- Camera lens -->
    <circle cx="110" cy="190" r="20" fill="none" stroke="#000" stroke-width="3"/>
    <circle cx="110" cy="190" r="15" fill="none" stroke="#000" stroke-width="2"/>
    <circle cx="110" cy="190" r="8" fill="#333" stroke="#000" stroke-width="1"/>

    <!-- Camera controls -->
    <rect x="130" y="170" width="20" height="40" fill="#ff9800" stroke="#000" stroke-width="1"/>
    <circle cx="140" cy="180" r="3" fill="#000"/>
    <circle cx="140" cy="200" r="3" fill="#000"/>

    <!-- Lens reflection -->
    <circle cx="105" cy="185" r="5" fill="#ffffff" opacity="0.3"/>
  </g>

  <!-- Data flow from camera -->
  <g id="data-flow">
    <path d="M190 190 Q220 170 250 190 Q280 210 310 190 Q340 170 370 190"
          fill="none" stroke="#00ffff" stroke-width="3" stroke-dasharray="5,5">
      <animate attributeName="stroke-dashoffset" values="0;10" dur="1s" repeatCount="indefinite"/>
    </path>

    <!-- Data packets -->
    <circle cx="220" cy="180" r="3" fill="#00ffff">
      <animateMotion dur="2s" repeatCount="indefinite">
        <mpath href="#data-path"/>
      </animateMotion>
    </circle>
    <path id="data-path" d="M190 190 Q220 170 250 190 Q280 210 310 190 Q340 170 370 190" fill="none" stroke="none"/>
  </g>

  <!-- RealityCapture Processing -->
  <g id="realitycapture">
    <!-- Main processing box -->
    <rect x="400" y="120" width="150" height="100" rx="15" fill="none" stroke="#9c27b0" stroke-width="2" filter="url(#shadow)"/>

    <!-- Header -->
    <rect x="410" y="130" width="130" height="20" fill="#9c27b0" opacity="0.2" rx="5"/>
    <text x="475" y="143" font-family="Courier New" font-size="10" fill="#9c27b0" text-anchor="middle">RealityCapture</text>

    <!-- Point cloud visualization -->
    <rect x="420" y="160" width="110" height="50" fill="none" stroke="#9c27b0" stroke-width="1"/>

    <!-- 3D points -->
    <circle cx="440" cy="180" r="2" fill="#9c27b0"/>
    <circle cx="460" cy="175" r="2" fill="#9c27b0"/>
    <circle cx="480" cy="185" r="2" fill="#9c27b0"/>
    <circle cx="500" cy="170" r="2" fill="#9c27b0"/>
    <circle cx="520" cy="190" r="2" fill="#9c27b0"/>
    <circle cx="445" cy="195" r="2" fill="#9c27b0"/>
    <circle cx="465" cy="188" r="2" fill="#9c27b0"/>
    <circle cx="485" cy="178" r="2" fill="#9c27b0"/>
    <circle cx="505" cy="195" r="2" fill="#9c27b0"/>
    <circle cx="515" cy="175" r="2" fill="#9c27b0"/>

    <!-- Connecting lines for 3D mesh -->
    <line x1="440" y1="180" x2="460" y2="175" stroke="#9c27b0" stroke-width="0.5" opacity="0.6"/>
    <line x1="460" y1="175" x2="480" y2="185" stroke="#9c27b0" stroke-width="0.5" opacity="0.6"/>
    <line x1="480" y1="185" x2="500" y2="170" stroke="#9c27b0" stroke-width="0.5" opacity="0.6"/>
    <line x1="500" y1="170" x2="520" y2="190" stroke="#9c27b0" stroke-width="0.5" opacity="0.6"/>
  </g>

  <!-- Neural Training Pipeline -->
  <g id="neural-training">
    <!-- NeRF path -->
    <path d="M580 150 Q620 130 660 150" fill="none" stroke="#ff9800" stroke-width="2"/>
    <circle cx="580" cy="150" r="4" fill="#ff9800"/>
    <circle cx="660" cy="150" r="4" fill="#ff9800"/>
    <text x="620" y="125" font-family="Courier New" font-size="8" fill="#ff9800" text-anchor="middle">NeRF</text>

    <!-- 3DGS path -->
    <path d="M580 190 Q620 210 660 190" fill="none" stroke="#00ffff" stroke-width="2"/>
    <circle cx="580" cy="190" r="4" fill="#00ffff"/>
    <circle cx="660" cy="190" r="4" fill="#00ffff"/>
    <text x="620" y="225" font-family="Courier New" font-size="8" fill="#00ffff" text-anchor="middle">3DGS</text>

    <!-- Final output -->
    <path d="M680 170 Q720 170 760 170" fill="none" stroke="#00ff88" stroke-width="3"/>
    <polygon points="755,165 765,170 755,175" fill="#00ff88"/>
    <circle cx="760" cy="170" r="6" fill="#00ff88"/>
  </g>

  <!-- Processing indicators -->
  <g id="indicators">
    <!-- Camera status LED -->
    <circle cx="160" cy="160" r="4" fill="#00ff88">
      <animate attributeName="opacity" values="0.3;1;0.3" dur="2s" repeatCount="indefinite"/>
    </circle>

    <!-- Processing status -->
    <circle cx="560" cy="130" r="3" fill="#9c27b0">
      <animate attributeName="opacity" values="0.5;1;0.5" dur="1.5s" repeatCount="indefinite"/>
    </circle>
  </g>

  <!-- Labels and descriptions -->
  <g id="labels">
    <text x="110" y="280" font-family="Courier New" font-size="12" fill="#00ff88" text-anchor="middle">Sapera SDK</text>
    <text x="110" y="295" font-family="Courier New" font-size="10" fill="#00ffff" text-anchor="middle">Camera Control</text>

    <text x="475" y="250" font-family="Courier New" font-size="12" fill="#9c27b0" text-anchor="middle">3D Reconstruction</text>
    <text x="475" y="265" font-family="Courier New" font-size="10" fill="#9c27b0" text-anchor="middle">Photogrammetry</text>

    <text x="660" y="250" font-family="Courier New" font-size="12" fill="#ff9800" text-anchor="middle">Neural Training</text>
    <text x="660" y="265" font-family="Courier New" font-size="10" fill="#00ffff" text-anchor="middle">Comparison</text>
  </g>

  <!-- Main title -->
  <text x="400" y="50" font-family="Courier New" font-size="20" fill="#00ff88" text-anchor="middle">Professional Dataset Creation Pipeline</text>
  <text x="400" y="70" font-family="Courier New" font-size="12" fill="#00ffff" text-anchor="middle">Sapera SDK → RealityCapture → Neural Rendering</text>

  <!-- Quality indicators -->
  <g id="quality-badges">
    <rect x="50" y="50" width="80" height="25" rx="12" fill="none" stroke="#00ff88" stroke-width="1"/>
    <text x="90" y="67" font-family="Courier New" font-size="10" fill="#00ff88" text-anchor="middle">4K+ Quality</text>

    <rect x="150" y="50" width="80" height="25" rx="12" fill="none" stroke="#9c27b0" stroke-width="1"/>
    <text x="190" y="67" font-family="Courier New" font-size="10" fill="#9c27b0" text-anchor="middle">SOTA Models</text>
  </g>

  <!-- Background glow effects -->
  <circle cx="110" cy="190" r="80" fill="#00ff88" opacity="0.1" filter="url(#glow)"/>
  <circle cx="475" cy="170" r="100" fill="#9c27b0" opacity="0.1" filter="url(#glow)"/>
  <circle cx="660" cy="170" r="70" fill="#ff9800" opacity="0.1" filter="url(#glow)"/>
</svg>
