<svg xmlns="http://www.w3.org/2000/svg" viewBox="0 0 400 600" style="background: linear-gradient(135deg, #1e3a8a 0%, #3730a3 50%, #581c87 100%);">
  <!-- Book spine effect -->
  <rect x="0" y="0" width="400" height="600" fill="url(#bookGradient)"/>

  <!-- Gradient definitions -->
  <defs>
    <linearGradient id="bookGradient" x1="0%" y1="0%" x2="100%" y2="100%">
      <stop offset="0%" style="stop-color:#1e40af;stop-opacity:1" />
      <stop offset="50%" style="stop-color:#3730a3;stop-opacity:1" />
      <stop offset="100%" style="stop-color:#6b21a8;stop-opacity:1" />
    </linearGradient>

    <linearGradient id="accentGradient" x1="0%" y1="0%" x2="100%" y2="0%">
      <stop offset="0%" style="stop-color:#fbbf24;stop-opacity:0.8" />
      <stop offset="100%" style="stop-color:#f59e0b;stop-opacity:0.6" />
    </linearGradient>

    <filter id="glow">
      <feGaussianBlur stdDeviation="3" result="coloredBlur"/>
      <feMerge>
        <feMergeNode in="coloredBlur"/>
        <feMergeNode in="SourceGraphic"/>
      </feMerge>
    </filter>
  </defs>

  <!-- Decorative circuit pattern -->
  <g opacity="0.1" stroke="#ffffff" stroke-width="1" fill="none">
    <circle cx="80" cy="120" r="15"/>
    <circle cx="320" cy="180" r="12"/>
    <circle cx="150" cy="480" r="18"/>
    <circle cx="280" cy="420" r="10"/>
    <line x1="80" y1="120" x2="150" y2="180"/>
    <line x1="320" y1="180" x2="280" y2="240"/>
    <line x1="150" y1="480" x2="200" y2="400"/>
    <rect x="70" y="300" width="20" height="20" rx="3"/>
    <rect x="300" y="350" width="15" height="15" rx="2"/>
  </g>

  <!-- Neural network visualization -->
  <g opacity="0.15" fill="#ffffff">
    <circle cx="60" cy="200" r="4"/>
    <circle cx="60" cy="240" r="4"/>
    <circle cx="60" cy="280" r="4"/>
    <circle cx="150" cy="220" r="4"/>
    <circle cx="150" cy="260" r="4"/>
    <circle cx="240" cy="240" r="4"/>

    <line x1="60" y1="200" x2="150" y2="220" stroke="#ffffff" stroke-width="1" opacity="0.3"/>
    <line x1="60" y1="240" x2="150" y2="220" stroke="#ffffff" stroke-width="1" opacity="0.3"/>
    <line x1="60" y1="280" x2="150" y2="260" stroke="#ffffff" stroke-width="1" opacity="0.3"/>
    <line x1="150" y1="220" x2="240" y2="240" stroke="#ffffff" stroke-width="1" opacity="0.3"/>
    <line x1="150" y1="260" x2="240" y2="240" stroke="#ffffff" stroke-width="1" opacity="0.3"/>
  </g>

  <!-- Title -->
  <text x="200" y="100" font-family="Arial, sans-serif" font-size="28" font-weight="bold" fill="#ffffff" text-anchor="middle" filter="url(#glow)">
    REINFORCEMENT
  </text>
  <text x="200" y="135" font-family="Arial, sans-serif" font-size="28" font-weight="bold" fill="#ffffff" text-anchor="middle" filter="url(#glow)">
    LEARNING
  </text>

  <!-- Subtitle -->
  <text x="200" y="170" font-family="Arial, sans-serif" font-size="16" fill="#fbbf24" text-anchor="middle">
    An Introduction
  </text>
  <text x="200" y="190" font-family="Arial, sans-serif" font-size="14" fill="#fbbf24" text-anchor="middle">
    Second Edition
  </text>

  <!-- Mathematical notation -->
  <g transform="translate(200, 320)" fill="#ffffff" opacity="0.6">
    <text x="0" y="0" font-family="serif" font-size="18" text-anchor="middle">
      V<tspan font-size="12" dy="5">π</tspan><tspan dy="-5">(s) = E</tspan><tspan font-size="12" dy="5">π</tspan><tspan dy="-5">[G</tspan><tspan font-size="12" dy="5">t</tspan><tspan dy="-5"> | S</tspan><tspan font-size="12" dy="5">t</tspan><tspan dy="-5"> = s]</tspan>
    </text>
  </g>

  <!-- Agent-Environment loop visualization -->
  <g transform="translate(200, 380)" opacity="0.4">
    <circle cx="-50" cy="0" r="25" fill="none" stroke="#fbbf24" stroke-width="2"/>
    <text x="-50" y="5" font-family="Arial, sans-serif" font-size="12" fill="#fbbf24" text-anchor="middle">Agent</text>

    <circle cx="50" cy="0" r="25" fill="none" stroke="#fbbf24" stroke-width="2"/>
    <text x="50" y="5" font-family="Arial, sans-serif" font-size="12" fill="#fbbf24" text-anchor="middle">Env</text>

    <!-- Arrows -->
    <path d="M -25 -10 Q 0 -30 25 -10" fill="none" stroke="#fbbf24" stroke-width="2" marker-end="url(#arrow)"/>
    <text x="0" y="-20" font-family="Arial, sans-serif" font-size="8" fill="#fbbf24" text-anchor="middle">action</text>

    <path d="M 25 10 Q 0 30 -25 10" fill="none" stroke="#fbbf24" stroke-width="2" marker-end="url(#arrow)"/>
    <text x="0" y="25" font-family="Arial, sans-serif" font-size="8" fill="#fbbf24" text-anchor="middle">state, reward</text>

    <defs>
      <marker id="arrow" markerWidth="10" markerHeight="10" refX="9" refY="3" orient="auto">
        <polygon points="0 0, 10 3, 0 6" fill="#fbbf24"/>
      </marker>
    </defs>
  </g>

  <!-- Authors -->
  <text x="200" y="520" font-family="Arial, sans-serif" font-size="18" font-weight="bold" fill="#ffffff" text-anchor="middle">
    Richard S. Sutton
  </text>
  <text x="200" y="545" font-family="Arial, sans-serif" font-size="18" font-weight="bold" fill="#ffffff" text-anchor="middle">
    Andrew G. Barto
  </text>

  <!-- Bottom accent line -->
  <rect x="50" y="570" width="300" height="3" fill="url(#accentGradient)" rx="2"/>
</svg>
